<svg version="1.0" xmlns="http://www.w3.org/2000/svg"  width="600.000000pt" height="327.000000pt" viewBox="0 0 600.000000 327.000000"  preserveAspectRatio="xMidYMid meet"> <g transform="translate(0.000000,327.000000) scale(0.100000,-0.100000)" fill="#0090d7" stroke="none"> <path d="M2373 2540 c-160 -33 -294 -167 -328 -328 -26 -124 -22 -1071 5 -1176 26 -104 77 -176 168 -238 109 -75 82 -73 793 -73 l635 0 77 38 c111 55 185 137 223 247 18 52 19 91 19 630 l0 575 -23 58 c-44 109 -140 205 -249 248 l-58 24 -610 2 c-335 1 -629 -3 -652 -7z m305 -222 c-2 -15 3 -24 15 -26 10 -2 17 3 17 13 0 12 8 16 33 13 30 -3 32 -6 35 -45 2 -24 8 -43 13 -43 6 0 7 -4 4 -10 -9 -15 -69 -12 -91 5 -16 12 -17 16 -5 24 10 6 1 8 -27 6 -49 -3 -54 11 -19 55 27 35 29 36 25 8z m209 -5 c-4 -3 -7 0 -7 7 0 7 3 10 7 7 3 -4 3 -10 0 -14z m-54 0 c-7 -2 -19 -2 -25 0 -7 3 -2 5 12 5 14 0 19 -2 13 -5z m-271 -405 l3 -263 124 155 c164 204 288 347 307 354 9 3 120 6 248 6 252 0 265 -3 296 -60 19 -35 14 -893 -5 -930 -29 -56 -50 -60 -304 -60 l-231 0 -42 43 c-53 52 -115 120 -196 215 -74 86 -114 131 -164 187 l-37 40 -1 -245 0 -245 -57 3 -58 4 2 526 c1 290 3 528 3 530 0 1 25 2 55 2 l55 0 2 -262z m118 -883 c-7 -9 -15 -13 -17 -11 -6 6 20 36 26 30 2 -2 -2 -10 -9 -19z m120 15 c12 -8 11 -10 -7 -10 -13 0 -23 5 -23 10 0 13 11 13 30 0z m-5 -24 c43 -8 47 -47 5 -63 -16 -6 -30 -7 -30 -2 0 20 -30 7 -44 -18 -11 -20 -15 -23 -16 -10 0 9 -5 17 -12 17 -6 0 -3 9 7 20 15 16 15 22 5 35 -7 8 -11 15 -9 16 2 0 12 2 22 4 11 2 22 6 25 10 3 3 13 3 21 -1 9 -3 21 -7 26 -8z m-112 -31 c5 -12 -10 -34 -16 -24 -2 2 -9 12 -16 22 -12 15 -11 17 7 17 11 0 22 -7 25 -15z m-53 -10 c0 -3 -2 -5 -5 -5 -3 0 -5 2 -5 5 0 3 2 5 5 5 3 0 5 -2 5 -5z"/> <path d="M2743 2270 c0 -25 2 -35 4 -22 2 12 2 32 0 45 -2 12 -4 2 -4 -23z"/> <path d="M3175 2110 c-3 -5 0 -13 8 -16 23 -8 127 0 130 11 3 14 -129 19 -138 5z"/> <path d="M3018 2030 c-14 -11 -70 -74 -124 -141 -55 -67 -125 -152 -156 -188 -69 -80 -69 -72 -10 -135 26 -29 74 -83 107 -121 116 -134 158 -180 173 -192 12 -10 72 -13 224 -13 207 0 208 0 223 24 23 34 20 742 -3 769 -24 28 -398 26 -434 -3z m135 -290 c41 -27 86 -54 100 -61 61 -28 52 -41 -81 -129 -147 -97 -146 -97 -150 65 -4 202 5 211 131 125z"/> <path d="M3184 1185 c-10 -26 10 -36 62 -33 41 3 49 6 49 23 0 27 -101 36 -111 10z"/> </g> </svg>
